<svg xmlns="http://www.w3.org/2000/svg" viewBox="0 0 351.43 306.3"><defs><style>.cls-1{fill:#4e444c;}.cls-2{fill:#f9f9f9;stroke:#0f80a1;stroke-miterlimit:10;}</style></defs><title>bubble-br</title><g id="Layer_2" data-name="Layer 2"><g id="Layer_1-2" data-name="Layer 1"><path class="cls-1" d="M342.15,202.94c-.41-3.24.67-6.46,1.64-9.58,5-16.09,7.57-33.71,2.11-49.65s-20.73-29.39-37.55-28.31c-.63-14-15.51-24-29.56-24.31s-27.21,6.26-39.69,12.7c-9.88-19.11-35.22-28.5-55.18-20.44-2.51,1-5,2.28-7.7,2.44-5.07.3-9.42-3.27-13.77-5.9-18.55-11.25-45.56-5-57.27,13.28-1.7,2.65-3.37,5.73-6.37,6.72-2,.66-4.21.21-6.28-.22-11.57-2.45-23.94-4.37-35-.09s-19.6,17-15.24,28C29.78,132.52,16.74,139.07,10.39,151S8.53,181.09,21.69,184C6.61,190.78-1.2,210.38,5.12,225.64s25.71,23.6,41.13,17.71a52.35,52.35,0,0,0,72.55,46c2.18-.92,4.47-2,6.81-1.63,2.76.45,4.74,2.77,6.67,4.79,18.5,19.39,54.07,18.13,71.14-2.53,14.07,14.35,36.58,15,56.68,14.77,8.89-.12,18-.26,26.37-3.12a43.24,43.24,0,0,0,28.14-33.25,37.12,37.12,0,0,0,32.29-55.08C345.05,209.94,342.63,206.73,342.15,202.94Z"/><path class="cls-1" d="M92.22,70.69c-1.07.41-.18,2.05.85,2.57,3.7,1.85,9,.95,10.82-2.76s-2.22-9.07-6-7.43c-.83-4.46,4.55-8.39,3.6-12.83-.74-3.46-5.19-5-8.56-3.93s-5.84,3.9-8.09,6.64a8.35,8.35,0,1,0-14,8.82A7.56,7.56,0,0,0,69.62,76.7c2.8.59,6-.36,8.38,1.25,1.4,1,2.13,2.59,3.24,3.87a8.32,8.32,0,0,0,14.58-6.32"/><path class="cls-1" d="M53.07,43.13a7.33,7.33,0,0,0,5.55.49,4.53,4.53,0,0,0,3.07-4.36c-.15-1.9-2.21-3.53-4-2.93a8.2,8.2,0,0,0,5.76-8.2A2.58,2.58,0,0,0,63,26.63a2.72,2.72,0,0,0-1.56-.78A11.74,11.74,0,0,0,51.1,28.61a5.07,5.07,0,0,0-5.47-5.54A5.07,5.07,0,0,0,42,29.95c-2.25-.77-4.69-1.54-7-.84s-4,3.61-2.58,5.54a5.28,5.28,0,0,0,2.41,1.61,35.68,35.68,0,0,0,5.88,1.83c-2.49.65-2.35,4.77-.1,6s5.14.28,7.16-1.3c.51,3,5,4.28,7,2Z"/><path class="cls-1" d="M22.72,18.37a4.5,4.5,0,0,0,4.13,1.2,3.21,3.21,0,0,0,2.39-3.35,2.51,2.51,0,0,0-3.34-1.94c1.57-.33,3.4-.89,3.89-2.42s-.84-3.16-2.4-3.46A5.32,5.32,0,0,0,23,9.92c.54-2.42.85-5.48-1.19-6.89-1.68-1.16-4.2-.32-5.3,1.4a6.62,6.62,0,0,0-.22,5.89,3.64,3.64,0,0,0-4.68,3.85A3.64,3.64,0,0,0,17.43,16c-1.8.66-1.51,3.76.28,4.43s3.89-.79,4.34-2.66Z"/><path class="cls-2" d="M339.73,196c-.41-3.24.67-6.46,1.64-9.58,5-16.09,7.57-33.71,2.11-49.65s-20.73-29.39-37.55-28.31c-.63-14-15.51-24-29.56-24.31s-27.21,6.26-39.69,12.7c-9.88-19.11-35.22-28.5-55.18-20.44-2.51,1-5,2.28-7.7,2.44-5.07.3-9.42-3.27-13.77-5.9-18.55-11.25-45.56-5-57.27,13.28-1.7,2.65-3.37,5.73-6.37,6.72-2,.66-4.21.21-6.28-.22-11.57-2.45-23.94-4.37-35-.09s-19.6,17-15.24,28C27.36,125.63,14.32,132.18,8,144.07s-1.85,30.12,11.3,33.07C4.19,183.89-3.62,203.49,2.71,218.75s25.71,23.6,41.13,17.71a52.35,52.35,0,0,0,72.55,46c2.18-.92,4.47-2,6.81-1.63,2.76.45,4.74,2.77,6.67,4.79,18.5,19.39,54.07,18.13,71.14-2.53,14.07,14.35,36.58,15,56.68,14.77,8.89-.12,18-.26,26.37-3.12a43.24,43.24,0,0,0,28.14-33.25,37.12,37.12,0,0,0,32.29-55.08C342.64,203,340.21,199.84,339.73,196Z"/><path class="cls-2" d="M90.22,67.69c-1.07.41-.18,2.05.85,2.57,3.7,1.85,9,.95,10.82-2.76s-2.22-9.07-6-7.43c-.83-4.46,4.55-8.39,3.6-12.83-.74-3.46-5.19-5-8.56-3.93s-5.84,3.9-8.09,6.64a8.35,8.35,0,1,0-14,8.82A7.56,7.56,0,0,0,67.62,73.7c2.8.59,6-.36,8.38,1.25,1.4,1,2.13,2.59,3.24,3.87a8.32,8.32,0,0,0,14.58-6.32"/><path class="cls-2" d="M52.07,40.13a7.33,7.33,0,0,0,5.55.49,4.53,4.53,0,0,0,3.07-4.36c-.15-1.9-2.21-3.53-4-2.93a8.2,8.2,0,0,0,5.76-8.2A2.58,2.58,0,0,0,62,23.64a2.72,2.72,0,0,0-1.56-.78A11.74,11.74,0,0,0,50.1,25.61a5.07,5.07,0,0,0-5.47-5.54A5.07,5.07,0,0,0,41,27c-2.25-.77-4.69-1.54-7-.84s-4,3.61-2.58,5.54a5.28,5.28,0,0,0,2.41,1.61,35.68,35.68,0,0,0,5.88,1.83c-2.49.65-2.35,4.77-.1,6s5.14.28,7.16-1.3c.51,3,5,4.28,7,2Z"/><path class="cls-2" d="M21.73,16.37a4.5,4.5,0,0,0,4.13,1.2,3.21,3.21,0,0,0,2.39-3.35,2.51,2.51,0,0,0-3.34-1.94c1.57-.33,3.4-.89,3.89-2.42s-.84-3.16-2.4-3.46a5.32,5.32,0,0,0-4.34,1.52c.54-2.42.85-5.48-1.19-6.89-1.68-1.16-4.2-.32-5.3,1.4a6.62,6.62,0,0,0-.22,5.89,3.64,3.64,0,0,0-4.68,3.85A3.64,3.64,0,0,0,16.44,14c-1.8.66-1.51,3.76.28,4.43s3.89-.79,4.34-2.66Z"/><text></text></g></g></svg>