<svg xmlns="http://www.w3.org/2000/svg" viewBox="0 0 350.6 301.41"><defs><style>.cls-1{fill:#4e444c;}.cls-2{fill:#f9f9f9;stroke:#0f80a1;stroke-miterlimit:10;}</style></defs><title>bubble</title><g id="Layer_2" data-name="Layer 2"><g id="Layer_1-2" data-name="Layer 1"><path class="cls-1" d="M11.36,111c.41,3.24-.67,6.46-1.64,9.58-5,16.09-7.57,33.71-2.11,49.65s20.73,29.39,37.55,28.31c.63,14,15.51,24,29.56,24.31s27.21-6.26,39.69-12.7c9.88,19.11,35.22,28.5,55.18,20.44,2.51-1,5-2.28,7.7-2.44,5.07-.3,9.42,3.27,13.77,5.9,18.55,11.25,45.56,5,57.27-13.28,1.7-2.65,3.37-5.73,6.37-6.72,2-.66,4.21-.21,6.28.22,11.57,2.45,23.94,4.37,35,.09s19.6-17,15.24-28c12.55-4.93,25.58-11.49,31.94-23.38s1.85-30.12-11.3-33.07c15.08-6.74,22.89-26.34,16.57-41.61s-25.71-23.6-41.13-17.71a52.35,52.35,0,0,0-72.55-46c-2.18.92-4.47,2-6.81,1.63-2.76-.45-4.74-2.77-6.67-4.79C202.73,2,167.16,3.27,150.09,23.93,136,9.58,113.51,8.9,93.41,9.16c-8.89.12-18,.26-26.37,3.12A43.24,43.24,0,0,0,38.91,45.54,37.86,37.86,0,0,0,7.07,63.88a37.86,37.86,0,0,0-.46,36.74C8.46,104,10.88,107.18,11.36,111Z"/><path class="cls-1" d="M263.3,236.23c1.07-.41.18-2.05-.85-2.57-3.7-1.85-9-.95-10.82,2.76s2.22,9.07,6,7.43c.83,4.46-4.55,8.39-3.6,12.83.74,3.46,5.19,5,8.56,3.93s5.84-3.9,8.09-6.64a8.35,8.35,0,1,0,14-8.82,7.56,7.56,0,0,0,1.19-14.94c-2.8-.59-6,.36-8.38-1.25-1.4-1-2.13-2.59-3.24-3.87a8.32,8.32,0,0,0-14.58,6.32"/><path class="cls-1" d="M300.45,261.78a7.33,7.33,0,0,0-5.55-.49,4.53,4.53,0,0,0-3.07,4.36c.15,1.9,2.21,3.53,4,2.93a8.2,8.2,0,0,0-5.76,8.2,2.58,2.58,0,0,0,.48,1.49,2.72,2.72,0,0,0,1.56.78,11.74,11.74,0,0,0,10.29-2.76,4.83,4.83,0,1,0,9.12-1.34c2.25.77,4.69,1.54,7,.84s4-3.61,2.58-5.54a5.28,5.28,0,0,0-2.41-1.61,35.68,35.68,0,0,0-5.88-1.83c2.49-.65,2.35-4.77.1-6s-5.14-.28-7.16,1.3c-.51-3-5-4.28-7-2Z"/><path class="cls-1" d="M330.79,285.54a4.5,4.5,0,0,0-4.13-1.2,3.21,3.21,0,0,0-2.39,3.35,2.51,2.51,0,0,0,3.34,1.94c-1.57.33-3.4.89-3.89,2.42s.84,3.16,2.4,3.46a5.32,5.32,0,0,0,4.34-1.52c-.54,2.42-.85,5.48,1.19,6.89,1.68,1.16,4.2.32,5.3-1.4a6.62,6.62,0,0,0,.22-5.89,3.45,3.45,0,1,0-1.1-5.68c1.8-.66,1.51-3.76-.28-4.43s-3.89.79-4.34,2.66Z"/><path class="cls-2" d="M9.78,103.86c.41,3.24-.67,6.46-1.64,9.58C3.13,129.53.57,147.16,6,163.1s20.73,29.39,37.55,28.31c.63,14,15.51,24,29.56,24.31s27.21-6.26,39.69-12.7c9.88,19.11,35.22,28.5,55.18,20.44,2.51-1,5-2.28,7.7-2.44,5.07-.3,9.42,3.27,13.77,5.9,18.55,11.25,45.56,5,57.27-13.28,1.7-2.65,3.37-5.73,6.37-6.72,2-.66,4.21-.21,6.28.22,11.57,2.45,23.94,4.37,35,.09s19.6-17,15.24-28c12.55-4.93,25.58-11.49,31.94-23.38s1.85-30.12-11.3-33.07c15.08-6.74,22.89-26.34,16.57-41.61s-25.71-23.6-41.13-17.71a52.35,52.35,0,0,0-72.55-46c-2.18.92-4.47,2-6.81,1.63-2.76-.45-4.74-2.77-6.67-4.79-18.5-19.39-54.07-18.13-71.14,2.53-14.07-14.35-36.58-15-56.68-14.77-8.89.12-18,.26-26.37,3.12A43.24,43.24,0,0,0,37.32,38.43,37.86,37.86,0,0,0,5.49,56.78,37.86,37.86,0,0,0,5,93.52C6.88,96.86,9.3,100.07,9.78,103.86Z"/><path class="cls-2" d="M259.3,232.22c1.07-.41.18-2.05-.85-2.57-3.7-1.85-9-.95-10.82,2.76s2.22,9.07,6,7.43c.83,4.46-4.55,8.39-3.6,12.83.74,3.46,5.19,5,8.56,3.93s5.84-3.9,8.09-6.64a8.35,8.35,0,1,0,14-8.82,7.56,7.56,0,0,0,1.19-14.94c-2.8-.59-6,.36-8.38-1.25-1.4-1-2.13-2.59-3.24-3.87a8.32,8.32,0,0,0-14.58,6.32"/><path class="cls-2" d="M297.44,258.78a7.33,7.33,0,0,0-5.55-.49,4.53,4.53,0,0,0-3.07,4.36c.15,1.9,2.21,3.53,4,2.93a8.2,8.2,0,0,0-5.76,8.2,2.58,2.58,0,0,0,.48,1.49,2.72,2.72,0,0,0,1.56.78,11.74,11.74,0,0,0,10.29-2.76,4.83,4.83,0,1,0,9.12-1.34c2.25.77,4.69,1.54,7,.84s4-3.61,2.58-5.54a5.28,5.28,0,0,0-2.41-1.61,35.68,35.68,0,0,0-5.88-1.83c2.49-.65,2.35-4.77.1-6s-5.14-.28-7.16,1.3c-.51-3-5-4.28-7-2Z"/><path class="cls-2" d="M327.79,283.54a4.5,4.5,0,0,0-4.13-1.2,3.21,3.21,0,0,0-2.39,3.35,2.51,2.51,0,0,0,3.34,1.94c-1.57.33-3.4.89-3.89,2.42s.84,3.16,2.4,3.46a5.32,5.32,0,0,0,4.34-1.52c-.54,2.42-.85,5.48,1.19,6.89,1.68,1.16,4.2.32,5.3-1.4a6.62,6.62,0,0,0,.22-5.89,3.45,3.45,0,1,0-1.1-5.68c1.8-.66,1.51-3.76-.28-4.43s-3.89.79-4.34,2.66Z"/><text></text></g></g></svg>