<svg xmlns="http://www.w3.org/2000/svg" width="9" height="10" viewBox="0 0 9 10">
    <g fill="none" fill-rule="evenodd">
        <g fill="#E13746">
            <g>
                <path d="M6.763 1.001c.592 0 1.017.415 1.036 1.005.006.208.006.417 0 .625-.01.348-.245.595-.559.6-.312.003-.555-.245-.57-.59-.007-.163-.001-.327-.001-.514H1.151v7.742H6.67c0-.176-.004-.338 0-.5.013-.349.247-.596.56-.6.313-.003.564.244.567.589.004.293.012.594-.043.879-.089.465-.482.76-.954.76-1.926.004-3.853.004-5.779.001-.572 0-1.014-.423-1.015-.997-.007-2.664-.006-5.328-.001-7.992.001-.588.443-1.008 1.032-1.008C2.945 1 4.854 1 6.763 1.001zM6.54 3.947c.538.53 1.072 1.064 1.602 1.602.278.282.28.616.004.896-.529.54-1.063 1.072-1.601 1.603-.266.262-.62.27-.859.036-.247-.243-.235-.597.039-.875.194-.196.397-.382.65-.624-.166-.007-.256-.014-.345-.015-1.05-.001-2.1-.001-3.15-.005-.348 0-.59-.178-.64-.455-.068-.379.201-.675.627-.675 1.041 0 2.082.005 3.124.01h.305l.035-.078c-.207-.197-.42-.387-.62-.59-.261-.268-.269-.617-.03-.857.236-.237.595-.233.859.027z" transform="translate(-17 -89) translate(17 88)"/>
            </g>
        </g>
    </g>
</svg>
