<svg xmlns="http://www.w3.org/2000/svg" width="34" height="34" viewBox="0 0 34 34">
    <g fill="none" fill-rule="evenodd">
        <g fill-rule="nonzero">
            <g>
                <g>
                    <g>
                        <path fill="#FFCC57" stroke="#FFF" stroke-width="2" d="M13.74 6.513c.481-.278 1.05-.266 1.5-.022h0l1.384 1.945c.212.337.276.722.21 1.084-.05.282-.18.55-.38.768l-.025.025.667 1.156c.966-.085 1.783-.12 2.567-.058l.335.033c2.894.422 5.264 1.937 6.659 4.353 1.226 2.125 1.465 4.553.857 6.76-.606 2.201-2.054 4.184-4.202 5.424-2.536 1.141-4.937 1.322-7.011.781-2.202-.574-4.047-1.958-5.213-3.977-.741-1.284-1.121-2.679-1.172-4.069h0l-2.817.461 2.612-3.193-.676-4.087 2.204 1.808c.242-.395.517-.774.822-1.132h0l-.674-1.373-.107.02c-.148.019-.296.016-.441-.008l-.143-.03c-.383-.1-.725-.347-.938-.714h0l-.817-1.416c-.212-.367-.254-.787-.15-1.169.103-.376.35-.715.716-.926h0zm-9.986 3.552l2.895 2.377 3.678-.602-2.36 2.885.611 3.696-2.894-2.378-3.679.602 2.36-2.885-.61-3.695zm13.973-6.337l3.348 2.75 4.258-.696L22.6 9.12l.707 4.275-3.348-2.75-4.258.697 2.732-3.34-.707-4.274zm-6.591 1.315c.443-.256.948-.31 1.404-.19.462.12.875.418 1.131.862h0l1.357 2.35-4.821 2.784-1.357-2.35c-.256-.444-.307-.95-.181-1.411.125-.455.423-.865.866-1.121h0z" transform="translate(-351 -310) translate(266 176) translate(0 134) translate(86)"/>
                        <g>
                            <g transform="translate(-351 -310) translate(266 176) translate(0 134) translate(86) rotate(-30 20.964 3.804) translate(.957 .434)">
                                <path fill="#7D889E" d="M11.76 3.095H8.194V1.38c0-.47.385-.85.86-.85h1.848c.475 0 .86.38.86.85v1.714z"/>
                                <path fill="#CEDFF8" d="M11.85 8.72V5.804H8.104V8.72c0 .13-.088.244-.215.278-3.4.906-5.9 3.968-5.9 7.607 0 4.352 3.576 7.88 7.988 7.88 4.412 0 7.988-3.528 7.988-7.88 0-3.639-2.5-6.701-5.9-7.607-.127-.034-.215-.148-.215-.278z"/>
                                <path fill="#C0D3F0" d="M12.066 8.998c-.128-.034-.216-.148-.216-.278V5.804H9.9V8.72c0 .13.088.244.215.278 3.399.906 5.9 3.968 5.9 7.607 0 4.026-3.061 7.346-7.013 7.82.32.04.645.06.975.06 4.412 0 7.988-3.528 7.988-7.88 0-3.639-2.5-6.701-5.9-7.607z"/>
                                <path fill="#A1B2CA" d="M12.42 5.804H7.534c-.297 0-.538-.238-.538-.531V3.638c0-.294.24-.532.538-.532h4.886c.298 0 .538.238.538.532v1.635c0 .293-.24.531-.538.531z"/>
                                <path fill="#94A7C5" d="M12.42 3.106h-1.95c.297 0 .538.238.538.532v1.635c0 .293-.241.531-.538.531h1.95c.298 0 .538-.238.538-.531V3.638c0-.294-.24-.532-.538-.532z"/>
                                <path fill="#D65BF5" d="M3.706 14.817c-.166.568-.255 1.168-.255 1.789 0 3.555 2.922 6.437 6.526 6.437 3.604 0 6.526-2.882 6.526-6.437 0-.62-.089-1.22-.255-1.789H3.706z"/>
                                <circle cx="6.105" cy="18.157" r="1" fill="#EDB0FF"/>
                                <ellipse cx="11.837" cy="19.84" fill="#EDB0FF" rx="1.268" ry="1.25"/>
                                <circle cx="14.236" cy="17.052" r="1" fill="#EDB0FF"/>
                                <path fill="#FFCC57" d="M17.267 4.53L18.015 6.519 19.999 7.269 18.015 8.019 17.267 10.009 16.519 8.019 14.535 7.269 16.519 6.519zM4.655 8.989L5.337 10.802 7.145 11.485 5.337 12.169 4.655 13.982 3.974 12.169 2.166 11.485 3.974 10.802zM1.997 3.031L2.538 4.471 3.974 5.014 2.538 5.556 1.997 6.996 1.456 5.556.02 5.014 1.456 4.471z"/>
                            </g>
                        </g>
                    </g>
                </g>
            </g>
        </g>
    </g>
</svg>
