<?xml version="1.0" encoding="utf-8"?>
<!-- Generator: Adobe Illustrator 16.0.0, SVG Export Plug-In . SVG Version: 6.00 Build 0)  -->
<!DOCTYPE svg PUBLIC "-//W3C//DTD SVG 1.1//EN" "http://www.w3.org/Graphics/SVG/1.1/DTD/svg11.dtd">
<svg version="1.1" id="Layer_1" xmlns="http://www.w3.org/2000/svg" xmlns:xlink="http://www.w3.org/1999/xlink" x="0px" y="0px"
	 width="512px" height="512px" viewBox="0 0 512 512" enable-background="new 0 0 512 512" xml:space="preserve">
<path fill="#0E8B44" d="
	M494.066,255.998c0.151,134.447-108.736,243.558-243.188,243.699C116.427,499.826,7.321,390.951,7.181,256.499
	c0-0.167,0-0.334,0-0.501C7.04,121.544,115.925,12.439,250.378,12.304c134.448-0.141,243.558,108.74,243.688,243.191
	C494.066,255.664,494.066,255.831,494.066,255.998z"/>
<g id="g3756" transform="matrix(0.5824089,0,0,0.5824089,-298.35727,-406.81819)">
	
		<path  fill="#EEEEEC" d="
		M846.679,838.908c-123.733,40.439-213.676,156.009-213.676,293.339c0,170.954,138.673,309.617,309.624,309.617
		c170.932,0,309.597-138.663,309.597-309.617c0-137.34-90.408-252.929-214.178-293.339v110.639
		c66.041,34.685,112.13,102.979,112.13,182.7c0,114.462-93.107,207.609-207.549,207.609c-114.462,0-207.599-93.148-207.599-207.609
		c0-79.674,45.619-148.005,111.651-182.7V838.908z"/>
</g>
<path fill="#EEEEEC" d="M281.081,226.609c0,16.823-13.633,30.444-30.455,30.444l0,0c-16.816,0-30.448-13.622-30.448-30.444V70.793
	c0-16.816,13.632-30.448,30.448-30.448l0,0c16.822,0,30.455,13.632,30.455,30.448V226.609z"/>
</svg>
