<svg xmlns="http://www.w3.org/2000/svg" viewBox="0 0 350.65 301.4"><defs><style>.cls-1{fill:#4e444c;}.cls-2{fill:#f9f9f9;stroke:#0f80a1;stroke-miterlimit:10;}</style></defs><title>bubble</title><g id="Layer_2" data-name="Layer 2"><g id="Layer_1-2" data-name="Layer 1"><g id="Layer_2-2" data-name="Layer 2"><g id="Layer_1-2-2" data-name="Layer 1-2"><path class="cls-1" d="M344,100.61a37.11,37.11,0,0,0-32.3-55.08,43.24,43.24,0,0,0-28.13-33.26c-8.37-2.86-17.48-3-26.37-3.12-20.1-.26-42.59.42-56.68,14.77C183.47,3.26,147.9,2,129.36,21.42c-1.93,2-3.91,4.34-6.67,4.79-2.34.37-4.63-.71-6.81-1.63a52.35,52.35,0,0,0-72.55,46C27.91,64.69,8.52,73,2.2,88.29s1.49,34.87,16.57,41.61C5.62,132.85,1.11,151.08,7.47,163s19.39,18.45,31.94,23.38c-4.36,11,4.18,23.72,15.24,28s23.43,2.36,35-.09c2.07-.43,4.28-.88,6.28-.22,3,1,4.67,4.07,6.37,6.72C114,239,141,245.29,159.57,234c4.35-2.63,8.7-6.2,13.77-5.9,2.7.16,5.19,1.44,7.7,2.44,20,8.06,45.3-1.33,55.18-20.44,12.48,6.44,25.64,13,39.69,12.7s28.93-10.31,29.56-24.31c16.82,1.08,32.09-12.37,37.55-28.31s2.89-33.56-2.11-49.65c-1-3.12-2.05-6.34-1.64-9.58C339.75,107.17,342.17,104,344,100.61Z"/><path class="cls-1" d="M91,231.4a8.32,8.32,0,0,0-14.58-6.32c-1.11,1.28-1.84,2.87-3.24,3.87-2.38,1.61-5.58.66-8.38,1.25A7.56,7.56,0,0,0,66,245.14,8.35,8.35,0,1,0,80,254c2.25,2.74,4.72,5.57,8.09,6.64s7.82-.47,8.56-3.93c.95-4.44-4.43-8.37-3.6-12.83,3.78,1.64,7.82-3.72,6-7.43s-7.12-4.61-10.82-2.76c-1,.52-1.92,2.16-.85,2.57"/><path class="cls-1" d="M51.88,260.1c-2-2.28-6.49-1-7,2-2-1.58-4.91-2.53-7.16-1.3s-2.39,5.35.1,6a35.68,35.68,0,0,0-5.88,1.83,5.28,5.28,0,0,0-2.41,1.61c-1.42,1.93.27,4.84,2.58,5.54s4.75-.07,7-.84a4.83,4.83,0,1,0,9.12,1.34A11.74,11.74,0,0,0,58.52,279a2.72,2.72,0,0,0,1.56-.78,2.58,2.58,0,0,0,.48-1.49,8.2,8.2,0,0,0-5.76-8.2c1.79.6,3.85-1,4-2.93a4.53,4.53,0,0,0-3.07-4.36,7.33,7.33,0,0,0-5.55.49Z"/><path class="cls-1" d="M19.18,286.13c-.45-1.87-2.55-3.33-4.34-2.66s-2.08,3.77-.28,4.43a3.45,3.45,0,1,0-1.1,5.68,6.62,6.62,0,0,0,.22,5.89c1.1,1.72,3.62,2.56,5.3,1.4,2-1.41,1.73-4.47,1.19-6.89a5.32,5.32,0,0,0,4.34,1.52c1.56-.3,2.89-1.93,2.4-3.46s-2.32-2.09-3.89-2.42a2.51,2.51,0,0,0,3.34-1.94A3.21,3.21,0,0,0,24,284.33a4.5,4.5,0,0,0-4.13,1.2Z"/><path class="cls-2" d="M345.63,93.51a37.15,37.15,0,0,0-32.32-55.09A43.24,43.24,0,0,0,285.16,5.17c-8.37-2.86-17.48-3-26.37-3.12-20.1-.23-42.61.42-56.68,14.77C185-3.84,149.47-5.1,131,14.29c-1.93,2-3.91,4.34-6.67,4.79-2.34.37-4.63-.71-6.81-1.63a52.35,52.35,0,0,0-72.55,46C29.52,57.56,10.13,65.89,3.81,81.16S5.3,116,20.38,122.77c-13.15,2.95-17.66,21.18-11.3,33.07S28.47,174.29,41,179.22c-4.36,11,4.18,23.72,15.24,28s23.43,2.36,35-.09c2.07-.43,4.28-.88,6.28-.22,3,1,4.67,4.07,6.37,6.72,11.71,18.28,38.72,24.53,57.27,13.28,4.35-2.63,8.7-6.2,13.77-5.9,2.7.16,5.19,1.44,7.7,2.44,20,8.06,45.3-1.33,55.18-20.44,12.48,6.44,25.64,13,39.69,12.7s28.93-10.31,29.56-24.31c16.82,1.08,32.12-12.37,37.55-28.31s2.87-33.57-2.14-49.66c-1-3.12-2.05-6.34-1.64-9.58C341.33,100.06,343.75,96.85,345.63,93.51Z"/><path class="cls-2" d="M95,227.39a8.32,8.32,0,0,0-14.58-6.32c-1.11,1.28-1.84,2.87-3.24,3.87-2.38,1.61-5.58.66-8.38,1.25A7.56,7.56,0,0,0,70,241.13a8.35,8.35,0,1,0,14,8.82c2.25,2.74,4.72,5.57,8.09,6.64s7.82-.47,8.56-3.93c.95-4.44-4.43-8.37-3.6-12.83,3.78,1.64,7.82-3.72,6-7.43s-7.12-4.61-10.82-2.76c-1,.52-1.92,2.16-.85,2.57"/><path class="cls-2" d="M54.89,257.1c-2-2.28-6.49-1-7,2-2-1.58-4.91-2.53-7.16-1.3s-2.39,5.35.1,6A35.68,35.68,0,0,0,35,265.63a5.28,5.28,0,0,0-2.41,1.61c-1.42,1.93.27,4.84,2.58,5.54s4.75-.07,7-.84a4.83,4.83,0,1,0,9.12,1.34A11.74,11.74,0,0,0,61.53,276a2.72,2.72,0,0,0,1.56-.78,2.58,2.58,0,0,0,.48-1.49,8.2,8.2,0,0,0-5.76-8.2c1.79.6,3.85-1,4-2.93a4.53,4.53,0,0,0-3.07-4.36,7.33,7.33,0,0,0-5.55.49Z"/><path class="cls-2" d="M22.18,284.13c-.45-1.87-2.55-3.33-4.34-2.66s-2.08,3.77-.28,4.43a3.45,3.45,0,1,0-1.1,5.68,6.62,6.62,0,0,0,.22,5.89c1.1,1.72,3.62,2.56,5.3,1.4,2-1.41,1.73-4.47,1.19-6.89a5.32,5.32,0,0,0,4.34,1.52c1.56-.3,2.89-1.93,2.4-3.46s-2.32-2.09-3.89-2.42a2.51,2.51,0,0,0,3.34-1.94A3.21,3.21,0,0,0,27,282.33a4.5,4.5,0,0,0-4.13,1.2Z"/></g></g></g></g></svg>