<svg xmlns="http://www.w3.org/2000/svg" width="26" height="26" viewBox="0 0 26 26">
    <g fill="none" fill-rule="evenodd">
        <g fill-rule="nonzero">
            <g>
                <g transform="translate(-353 -174) translate(266 176) translate(89)">
                    <circle cx="10.979" cy="10.979" r="11.979" fill="#FFD54F" stroke="#FFF" stroke-width="2"/>
                    <g fill="#6D4C41">
                        <path d="M3.888 2.973c-.379 0-.686-.307-.686-.686 0-.504-.41-.915-.915-.915-.505 0-.915.411-.915.915 0 .379-.307.686-.686.686-.379 0-.686-.307-.686-.686C0 1.027 1.026 0 2.287 0 3.55 0 4.574 1.026 4.574 2.287c0 .379-.307.686-.686.686zM12.122 2.973c-.379 0-.686-.307-.686-.686 0-.504-.41-.915-.915-.915-.505 0-.915.411-.915.915 0 .379-.307.686-.686.686-.379 0-.686-.307-.686-.686C8.234 1.027 9.259 0 10.52 0s2.287 1.026 2.287 2.287c0 .379-.307.686-.686.686zM6.404 9.149c-1.998 0-3.875-.778-5.288-2.191-.268-.268-.268-.703 0-.971s.703-.268.97 0c1.154 1.155 2.687 1.79 4.318 1.79 1.631 0 3.165-.635 4.318-1.79.268-.267.703-.267.971 0 .268.269.268.704 0 .972-1.413 1.412-3.29 2.19-5.289 2.19z" transform="translate(4.574 7.319)"/>
                    </g>
                </g>
            </g>
        </g>
    </g>
</svg>
