<svg xmlns="http://www.w3.org/2000/svg" width="25" height="26" viewBox="0 0 25 26">
    <g fill="none" fill-rule="evenodd">
        <g fill-rule="nonzero">
            <g>
                <g>
                    <g>
                        <g fill="#FBF1CF" stroke="#FFF" stroke-width="2">
                            <path d="M10.216-1.093l-.178.543.012.005.537-.1c.549-.102 1.063.087 1.415.438.352.352.541.867.439 1.416h0l-.1.537.26.48c.268.49.247 1.037.021 1.48-.226.444-.657.783-1.21.855h0l-.543.07-.374.397c-.207.219-.456.362-.718.437l-.021.004-.019.084c-.097.452-.177.914-.233 1.363l-.047.444-.02.255h0l-.01.164c.177.027.342.073.5.14l.153.072c.452.239.813.65.976 1.176.163.526.097 1.069-.141 1.52-.238.453-.649.814-1.176.977l-.018.006c.286.45.627.878 1.02 1.272 1.083 1.083 2.418 1.76 3.816 2.034 1.44.28 2.949.132 4.319-.447.376-.159.751-.18 1.093-.109.372.078.707.272.962.543s.427.618.48.995c.05.346.003.72-.182 1.085-.677 1.337-1.623 2.514-2.772 3.467h0l-.03.025c-.29.239-.593.463-.913.674h0l-.059.038c-.079.052-.158.102-.245.156h0l-.095.057c-.084.05-.167.1-.258.15h0l-.068.038c-.338.187-.687.357-1.054.511h0l-.043.018c-.095.04-.19.077-.295.117h0l-.092.034c-.239.089-.482.17-.728.241h0l-.018.005-.103.03-.245.064h0l-.939.23-.013-.036-.378.056c-.293.036-.59.06-.89.073L11.54 23c-.478 0-.948-.031-1.41-.092l-.295-.044 2.361 82.623-4.084-83.044-.314-.11c-1.061-.392-2.046-.946-2.923-1.631l-.26-.21c-1.916-1.593-3.279-3.83-3.75-6.372h0l-.01-.06c-.017-.092-.033-.185-.047-.28h0l-.011-.078c-.035-.236-.062-.474-.08-.722h0l-.007-.09c-.007-.095-.012-.192-.017-.294h0l-.005-.138-.003-.209-.001-.1c0-.269.01-.536.029-.8l-.021.383c-.345-.102-.498-.16-.586-.202l-.055-.028-.022-.013-.041-.023-.14-.093c-.072-.053-.14-.11-.205-.171-.273-.26-.467-.595-.559-.959-.086-.342-.083-.713.03-1.076.163-.527.524-.937.976-1.176.2-.106.42-.177.647-.21l.075-.008.042-.14c.6-1.95 2.042-4.43 5.257-5.76l.327-.129c.08-.16.19-.31.33-.443h0l.397-.375.07-.542c.024-.18.076-.346.15-.496.022-.045.046-.09.073-.131h0l.03-.049c.033-.048.068-.095.105-.14h0l.029-.033.03-.034c.03-.03.057-.057.083-.08.034-.032.07-.062.112-.094.026-.02.053-.04.076-.055.043-.03.089-.057.135-.082h0l.05-.025c.055-.028.114-.052.174-.074h0l.05-.016c.06-.02.117-.034.175-.045h0l.106-.02 1.604-.103z" transform="translate(-354 -244) translate(266 176) translate(0 70) translate(90)"/>
                        </g>
                        <g>
                            <path fill="#FBF1CF" d="M10.034 13.649C7.54 11.153 6.938 7.48 8.233 4.418c.302-.717-.447-1.423-1.141-1.072-3.21 1.626-5.409 4.955-5.409 8.798 0 5.425 4.431 9.856 9.856 9.856 3.843 0 7.172-2.2 8.798-5.409.351-.694-.355-1.443-1.072-1.14-3.062 1.294-6.735.693-9.23-1.802z" transform="translate(-354 -244) translate(266 176) translate(0 70) translate(90)"/>
                            <path fill="#FAE0BD" d="M2.701 7.777c-.652 1.316-1.018 2.799-1.018 4.367 0 .614.057 1.215.166 1.799 1.605-.178 2.853-1.539 2.853-3.191 0-1.346-.827-2.497-2-2.975z" transform="translate(-354 -244) translate(266 176) translate(0 70) translate(90)"/>
                            <path fill="#CDE9FA" d="M1.471 9.82C1.524 7.968 2.83 2.586 9.965 2 9.01 3.292 7.883 8.23 8.697 9.82c-1.512.681-3.109.681-3.613.681-.503 0-2.81-.242-3.613-.68z" transform="translate(-354 -244) translate(266 176) translate(0 70) translate(90)"/>
                            <path fill="#A2DDFD" d="M5.084 7.956c-.904 0-2.236-.113-3.166-.359-.317.897-.432 1.701-.447 2.224.804.438 3.11.68 3.613.68.504 0 2.101 0 3.613-.68-.256-.5-.32-1.332-.257-2.277-.931.283-2.389.412-3.356.412z" transform="translate(-354 -244) translate(266 176) translate(0 70) translate(90)"/>
                            <path fill="#8EAFE2" d="M5.084 11.276c-1.165 0-3.006-.149-4.36-.568-.525-.162-.819-.72-.656-1.246.163-.525.72-.82 1.246-.656 1.068.33 2.663.478 3.77.478 1.108 0 2.703-.148 3.77-.478.526-.163 1.084.13 1.247.656.162.526-.132 1.084-.657 1.246-1.354.42-3.194.568-4.36.568zM11.458 1.025l-.147.785c-.012.066-.001.134.03.193l.382.7c.198.364-.03.813-.44.867l-.792.103c-.067.008-.128.04-.174.088l-.549.58c-.284.3-.782.222-.96-.152l-.342-.721c-.03-.06-.078-.11-.138-.138l-.721-.343c-.374-.177-.453-.675-.152-.96l.58-.548c.048-.046.08-.107.088-.174l.103-.791c.054-.41.503-.64.866-.442l.701.382c.059.032.127.043.193.03l.784-.146c.407-.076.764.28.688.687z" transform="translate(-354 -244) translate(266 176) translate(0 70) translate(90)"/>
                            <path fill="#7C93DD" d="M8.806 0c-.28.003-.54.208-.58.513l-.103.792c-.009.066-.04.128-.088.174l-.58.549c-.3.284-.222.782.152.96l.72.342c.061.029.11.077.139.138l.342.72c.178.375.676.454.96.153l.474-.501C8.874 3.114 8.474 1.014 8.806 0z" transform="translate(-354 -244) translate(266 176) translate(0 70) translate(90)"/>
                            <g>
                                <g fill="#EDA1AB" transform="translate(-354 -244) translate(266 176) translate(0 70) translate(90) translate(3.953 16.2) translate(0 .602)">
                                    <ellipse cx="1.239" cy=".989" rx="1.197" ry="1"/>
                                    <ellipse cx="7.724" cy=".989" rx="1.197" ry="1"/>
                                </g>
                                <g fill="#4E5660">
                                    <path d="M.948.95C.618.95.305.807.088.558-.03.424-.015.221.118.104.254-.013.458 0 .575.134c.094.11.23.172.374.172.143 0 .28-.063.374-.171.117-.134.32-.148.455-.031.134.117.148.32.031.454-.217.25-.53.392-.86.392zM6.039.95c-.33 0-.643-.143-.86-.392-.117-.134-.103-.337.03-.454.135-.117.338-.103.455.03.095.11.231.172.375.172.143 0 .28-.063.374-.171.117-.134.32-.148.455-.031.134.117.148.32.031.454-.217.25-.53.392-.86.392zM3.97 1.19c0-.282-.213-.51-.477-.51-.263 0-.477.228-.477.51 0 .28.214.508.477.508.264 0 .478-.228.478-.509z" transform="translate(-354 -244) translate(266 176) translate(0 70) translate(90) translate(3.953 16.2) translate(.988)"/>
                                </g>
                            </g>
                            <path fill="#FAE0BD" d="M16.024 18.802c-1.219 0-2.207.989-2.207 2.208 0 .244.04.478.113.698 1.453-.362 2.778-1.047 3.895-1.973-.4-.564-1.057-.933-1.8-.933z" transform="translate(-354 -244) translate(266 176) translate(0 70) translate(90)"/>
                            <path fill="#7C93DD" d="M4.64 11.27c-.622-.515-.601-1.53-.344-2.008-.993-.052-2.148-.198-2.982-.457-.525-.162-1.083.132-1.246.657-.163.526.131 1.084.657 1.246 1.191.37 2.76.529 3.914.561z" transform="translate(-354 -244) translate(266 176) translate(0 70) translate(90)"/>
                        </g>
                    </g>
                </g>
            </g>
        </g>
    </g>
</svg>
