<svg xmlns="http://www.w3.org/2000/svg" width="24" height="24" viewBox="0 0 24 24">
    <g fill="none" fill-rule="evenodd">
        <g fill-rule="nonzero">
            <g>
                <g>
                    <g transform="translate(-354 -350) translate(266 176) translate(0 176) translate(90)">
                        <path fill="#FAE7CB" stroke="#FFF" stroke-width="2" d="M5.77-.112c2.422-1.012 5.033-1.095 7.402-.379 2.369.717 4.496 2.234 5.949 4.418.17.253.328.514.475.78.831 1.505 1.295 3.184 1.354 4.898.008 3.325-1.155 6.097-3.201 8.144-2.056 2.055-4.843 3.209-7.748 3.208-2.395.003-4.648-.773-6.482-2.117C1.68 17.493.263 15.574-.453 13.295c-.164-.561-.224-.813-.276-1.065C-1.264 9.66-.85 7.081.303 4.892 1.457 2.702 3.35.902 5.771-.112z"/>
                        <path fill="#FAE7CB" d="M19.957 10c0 2.641-1.048 5.174-2.916 7.041-1.867 1.868-4.4 2.917-7.041 2.916-4.452.005-8.366-2.95-9.58-7.233-.065-.23-.122-.462-.17-.697C-.722 7.356 1.755 2.652 6.157.81c4.401-1.84 9.49-.301 12.132 3.671.154.23.298.466.432.71.813 1.471 1.239 3.126 1.236 4.808z"/>
                        <path fill="#529DDF" d="M13.09 5.193l-.189 1.02-.32 1.727c-.59 3.187-1.588 6.284-2.971 9.215-.424.899-.884 1.78-1.38 2.645-3.739-.677-6.768-3.422-7.81-7.076.038-.071.077-.141.116-.21 1.824-3.24 4.7-5.758 8.15-7.139l2.7-1.08.33-.132 1.374 1.03z"/>
                        <path fill="#E04446" d="M13.166 2.791c-.022.115-.048.229-.076.342l-.687.343c-.147-.088-.296-.175-.446-.258-2.012-1.126-4.232-1.83-6.525-2.068C7.847-.093 10.663-.299 13.233.58c.099.736.076 1.483-.067 2.211z"/>
                        <path fill="#7AB355" d="M18.253 15.573c.008-.182.011-.363.01-.544 0-3.456-1.301-6.786-3.645-9.326l-.154-.167V3.82h.611c.958 0 1.908.172 2.805.508l.41.154c.153.23.297.466.43.71 1.804 3.274 1.623 7.282-.467 10.38z"/>
                        <path fill="#FFF8EE" d="M1.786 9.34L1.1 9.286c.173-2.17 1.134-4.203 2.704-5.713l.476.494C2.833 5.46 1.945 7.337 1.786 9.34zM5.055 3.408l-.412-.55c.23-.172.47-.335.715-.484l.357.586c-.226.138-.448.288-.66.448z"/>
                        <circle cx="13.09" cy="4.506" r="1.717" fill="#D4E4F0"/>
                        <path fill="#E8D0B3" d="M19.957 10c0 2.641-1.048 5.174-2.916 7.041-1.867 1.868-4.4 2.917-7.041 2.916-4.452.005-8.366-2.95-9.58-7.233-.065-.23-.122-.462-.17-.697 2.382 4.31 7.556 6.232 12.174 4.523 4.618-1.71 7.294-6.536 6.297-11.359.813 1.472 1.239 3.127 1.236 4.809z"/>
                        <path fill="#4384C3" d="M8.97 17.175c.215 0 .428-.007.64-.02-.424.899-.884 1.78-1.38 2.645-3.739-.677-6.768-3.422-7.81-7.076.038-.071.077-.141.116-.21 1.82 2.903 5.007 4.665 8.434 4.661z"/>
                        <path fill="#699949" d="M18.253 15.573c.008-.182.011-.363.01-.544.001-1.118-.136-2.232-.405-3.317 1.014-2.014 1.319-4.312.863-6.52 1.803 3.274 1.622 7.282-.468 10.38z"/>
                    </g>
                </g>
            </g>
        </g>
    </g>
</svg>
