<svg xmlns="http://www.w3.org/2000/svg" width="26" height="25" viewBox="0 0 26 25">
    <g fill="none" fill-rule="evenodd">
        <g fill-rule="nonzero">
            <g>
                <g>
                    <g>
                        <path fill="#FF6243" stroke="#FFF" stroke-width="2" d="M16.038-1c1.87 0 3.572.841 4.815 2.164 1.257 1.339 2.034 3.167 2.034 5.062 0 8.563-11.484 14.662-11.484 14.662l-.117.06-.142.072-.194.095c-.302-.142-.466-.227-.466-.227s-5.057-2.618-8.43-6.863C.292 11.808-1 9.16-1 6.226c0-1.895.776-3.723 2.034-5.062C2.277-.16 3.98-1 5.85-1c1.237 0 2.425.334 3.456.937.609.356 1.162.806 1.639 1.337.476-.531 1.03-.981 1.638-1.337C13.612-.666 14.8-1 16.038-1z" transform="translate(-354 -280) translate(266 176) translate(0 106) translate(90)"/>
                        <path fill="#FF5023" d="M1.51 6.226C1.51 3.238 3.751.455 6.645.054 6.382.018 6.116 0 5.849 0 2.62 0 0 2.996 0 6.226 0 14.34 10.943 20 10.943 20s.283-.147.755-.424C9.226 18.122 1.51 13.04 1.51 6.226z" transform="translate(-354 -280) translate(266 176) translate(0 106) translate(90)"/>
                    </g>
                </g>
            </g>
        </g>
    </g>
</svg>
