<svg xmlns="http://www.w3.org/2000/svg" width="322" height="65" viewBox="0 0 322 65">
    <g fill="none" fill-rule="evenodd" stroke-opacity=".1">
        <g fill="#7B7EDA" stroke="#7B7EDA" stroke-width="4">
            <path d="M319.42-2c1.17 9.66-.815 19.928-5.845 28.25-10.45 17.288-30.666 26.724-50.723 29.383-15.635 2.072-31.427.635-47.165-1.042h0l-2.397-.256-.844-.091c-2.908-.313-5.813-.625-8.714-.916-49.928-5.002-100.498-3.547-150.056 4.317-1.613.256-3.233.518-4.86.781h0l-1.63.265-1.636.264-1.639.264-.823.131h0l-1.643.261c-1.099.173-2.2.344-3.304.513h0l-1.652.248c-12.903 1.92-25.951 3.29-38.489 2.17h0V-2z"/>
        </g>
    </g>
</svg>
