<svg xmlns="http://www.w3.org/2000/svg" width="26" height="26" viewBox="0 0 26 26">
    <g fill="none" fill-rule="evenodd">
        <g fill-rule="nonzero">
            <g>
                <g>
                    <g transform="translate(-354 -210) translate(266 176) translate(0 34) translate(88)">
                        <path fill="#F3F0F3" stroke="#FFF" stroke-width="2" d="M9.649 1.488c.91-.261 1.768-.334 2.518-.225.825.119 1.53.453 2.073.99.622.577 5.142 4.914 5.67 10.38.04.402.057.805.051 1.21-.015.946-.027 1.585.034 2.243.018.195.04.39.068.584.038.268.103.526.194.778h0l.77.77c.376-.207.765-.318 1.14-.347.762-.06 1.491.205 2.044.757.526.527.789 1.216.789 1.905 0 .69-.263 1.38-.79 1.906-.32.32-.7.542-1.104.668-.125.404-.348.784-.667 1.104-.527.526-1.216.789-1.906.789-.689 0-1.378-.263-1.905-.79-.526-.525-.789-1.215-.789-1.904 0-.396.087-.792.26-1.157h0l-.712-.915c-.233-.08-.47-.136-.717-.17-.194-.028-.39-.051-.585-.07-.652-.06-1.286-.048-1.934-.038-.729.01-1.124-.008-1.517-.046-5.425-.524-9.737-4.977-10.329-5.62-.544-.552-.884-1.257-1.014-2.075-.121-.758-.057-1.62.196-2.532.454-1.638 1.53-3.457 3.134-5.061 1.595-1.596 3.404-2.669 5.028-3.134z"/>
                        <path fill="#F3F0F3" d="M21.108 19.336c-.064.064-.122.132-.174.203l-3.138-3.138-1.395 1.395 3.138 3.138c-.071.052-.14.11-.203.174-.662.662-.662 1.734 0 2.396.661.661 1.734.661 2.395 0 .352-.351.516-.818.495-1.278.46.021.927-.143 1.278-.495.661-.661.661-1.734 0-2.395-.662-.662-1.734-.662-2.396 0z"/>
                        <path fill="#E2DEE2" d="M23.885 21.147c-.082-.232-.215-.45-.401-.636-.661-.662-1.734-.662-2.396 0l-.001.002c-.103.103-.268.106-.37.003l-3.519-3.518.598-.597 3.138 3.138c.052-.071.11-.14.174-.204.662-.661 1.734-.661 2.396 0 .49.49.617 1.205.381 1.812z"/>
                        <path fill="#D77F4A" d="M13.542 2.977L8.265 8.254l-.01.01-5.278 5.278s4.258 4.842 9.753 5.373c.365.035.731.051 1.098.046.79-.01 1.557-.035 2.35.038.21.02.422.044.632.074.415.058.808.166 1.194.326l1.398-1.392c-.16-.386-.27-.782-.33-1.197-.029-.21-.054-.421-.073-.633-.073-.792-.048-1.558-.038-2.35.005-.366-.01-.732-.046-1.097-.531-5.495-5.373-9.753-5.373-9.753z"/>
                        <path fill="#C86D36" d="M19.402 18.007l-.599.596c-.062-.255-.25-.639-.323-.77-.247-.45-.366-.841-.431-1.354-.03-.232-.047-.465-.058-.699-.02-.448-.012-.897-.01-1.345.006-.989.018-1.998-.212-2.966-.15-.63-.35-1.25-.593-1.851-.45-1.118-1.042-2.176-1.726-3.167-.108-.156-1.642-2.082-2.448-2.933l.54-.54s4.842 4.257 5.373 9.752c.035.365.051.731.046 1.098-.01.79-.035 1.557.038 2.35.02.21.044.422.074.632.058.415.17.81.33 1.197z"/>
                        <ellipse cx="8.258" cy="8.26" fill="#E8AD8C" rx="7.477" ry="4.144" transform="rotate(-45 8.258 8.26)"/>
                        <path fill="#E19974" d="M11.19 11.19c-2.109 2.11-4.614 3.246-6.453 3.105 1.716-.195 3.803-1.286 5.602-3.085 2.92-2.92 3.976-6.6 2.357-8.218-.45-.45-1.058-.693-1.765-.748 1.07-.121 1.995.107 2.616.728 1.619 1.619.564 5.298-2.357 8.218z"/>
                        <ellipse cx="8.258" cy="8.26" fill="#9E5528" rx="5.908" ry="2.936" transform="rotate(-45 8.258 8.26)"/>
                        <path fill="#904D24" d="M10.336 10.336c-2.09 2.09-4.586 3.06-5.89 2.37 1.378.083 3.357-.877 5.065-2.585 2.308-2.308 3.249-5.108 2.102-6.255-.108-.108-.23-.197-.365-.269.483.03.893.186 1.19.484 1.147 1.147.206 3.947-2.102 6.255z"/>
                        <ellipse cx="9.945" cy="6.598" fill="#ECBBA3" rx="1.692" ry="1" transform="rotate(-47.472 9.945 6.598)"/>
                        <path fill="#E8AD8C" d="M10.593 7.191c-.632.689-1.434.98-1.793.652-.11-.102-.167-.252-.171-.431.384-.054.862-.333 1.268-.777.436-.475.676-1.014.666-1.411.212-.03.396.008.523.125.36.329.138 1.154-.493 1.842z"/>
                    </g>
                </g>
            </g>
        </g>
    </g>
</svg>
