<svg xmlns="http://www.w3.org/2000/svg" width="31" height="26" viewBox="0 0 31 26">
    <defs>
        <filter id="tsc01ngzya" width="132%" height="140%" x="-16%" y="-20%" filterUnits="objectBoundingBox">
            <feOffset dy="1" in="SourceAlpha" result="shadowOffsetOuter1"/>
            <feGaussianBlur in="shadowOffsetOuter1" result="shadowBlurOuter1" stdDeviation=".5"/>
            <feColorMatrix in="shadowBlurOuter1" result="shadowMatrixOuter1" values="0 0 0 0 0 0 0 0 0 0 0 0 0 0 0 0 0 0 0.2 0"/>
            <feMerge>
                <feMergeNode in="shadowMatrixOuter1"/>
                <feMergeNode in="SourceGraphic"/>
            </feMerge>
        </filter>
    </defs>
    <g fill="none" fill-rule="evenodd">
        <g fill="#FEFEFF" fill-rule="nonzero">
            <g>
                <g filter="url(#tsc01ngzya)" transform="translate(-407 -70) translate(398 64) translate(12 9)">
                    <path d="M20.243 11.351v3.46c0 1.104-.896 2-2 2H6.757c-1.104 0-2-.896-2-2v-3.46c-.633.287-1.336.431-2.111.431-.211 0-.492 0-.703-.071v3.972c0 2.21 1.79 4 4 4h13.113c2.209 0 4-1.79 4-4l.001-3.974c-.21.073-.492.073-.703.073-.775 0-1.478-.144-2.111-.431zM18.745.287c1.294 0 2.504.625 3.252 1.67l.127.189 2.473 3.902c.085.134.134.286.172.444l.035.161-.02.154c-.191 1.225-1.224 2.1-2.426 2.1-1.338 0-2.464-1.15-2.464-2.514 0 1.437-1.127 2.515-2.464 2.515-1.338 0-2.463-1.15-2.463-2.515 0 1.437-1.127 2.515-2.464 2.515l-.101-.005-.099.005c-1.283 0-2.373-.994-2.458-2.345l-.005-.17c0 1.364-1.126 2.515-2.464 2.515-1.337 0-2.464-1.078-2.464-2.515 0 1.364-1.126 2.515-2.464 2.515-1.202 0-2.235-.876-2.427-2.1l-.019-.155.035-.16c.038-.16.087-.311.172-.445l2.473-3.902.127-.189C3.558.912 4.767.287 6.061.287h12.684z"/>
                </g>
            </g>
        </g>
    </g>
</svg>
