<svg xmlns="http://www.w3.org/2000/svg" xmlns:xlink="http://www.w3.org/1999/xlink" width="500" height="161" viewBox="0 0 500 161">
    <defs>
        <linearGradient id="4osgthmwdb" x1="51.463%" x2="51.463%" y1="171.102%" y2="0%">
            <stop offset="0%" stop-color="#B2B5EF" stop-opacity="0"/>
            <stop offset="100%" stop-color="#7B7EDA"/>
        </linearGradient>
        <path id="wkdypi2k1a" d="M3.749 147.198c1.596.32 3.21.558 4.825.773 1.856.247 3.101 1.51 3.04 3.697-1.06 2.244-1.717 5.24-4.059 7.308-1.055.931-3.077.327-3.658-1.117-.371-.92-.542-2.002-.486-2.993.071-1.285-.427-1.96-1.544-2.432-1.78-.75-2.232-1.902-1.59-3.78.422-1.23 1.851-1.78 3.472-1.456zm12.92 8.292c.324.525.462 1.638.142 1.99-.682.748-1.718 1.174-2.728 1.806-1.05-.614-2.01-.99-2.678-1.657-.264-.265-.05-1.28.244-1.778.832-1.414 4.21-1.669 5.02-.361zm3.413-5.911c.431.63.87 1.812.573 2.259-.518.78-1.6 1.187-2.447 1.75l-.183-.322c-.62-.052-1.244-.082-1.861-.162-1.708-.22-2.42-1.868-1.44-3.304.875-1.28 4.48-1.504 5.358-.221zm-1.463-5.673c.95.671 1.04 2.213-.004 2.896-.952.624-2.1.949-3.163 1.405-1.974-.246-2.525-1.087-1.795-2.827.775-1.85 3.348-2.614 4.962-1.474zm-6.728-.066c.155 1.409-1.912 2.773-4.048 2.784-1.102.005-2.08-.19-2.069-1.624.01-1.516 2.025-3.208 3.958-3.207 1.47-.269 2.021.79 2.16 2.047zm42.897-11.242c1.513.31 3.07.488 4.525.973 1.277.425 1.896 1.416 1.426 2.887-.632 1.975-1.146 3.988-1.779 5.964-.414 1.297-1.322 2.198-2.74 2.11-1.357-.083-2.248-.844-2.439-2.331-.099-.772-.316-1.59-.714-2.244-.326-.534-.943-1.067-1.532-1.227-1.438-.39-2.921-1.8-2.783-3.004.164-1.422 1.634-2.979 3.237-2.872.908.06 1.824.01 2.736.01l.063-.266zm10.18 5.885c.804.097 1.72.962 2.135 1.732.161.297-.82 1.39-1.46 1.89-.584.454-1.411.595-2.48 1.01-.673-.523-1.658-.94-1.968-1.652-.204-.47.383-1.612.934-2.006.799-.57 1.928-1.084 2.839-.974zm4.787-4.45c.18 1.375-1.549 2.597-3.814 2.596-1.266.128-2.501-.152-2.794-1.754-.237-1.301 1.304-2.746 3.047-3.03 1.611-.262 3.385.827 3.561 2.188zm-44.12-14.22c1.217.392 2.571.35 3.798.721 1.352.409 2.736.9 3.907 1.663 1.221.796 1.247 2.101.468 3.326-1.207 1.896-2.38 3.822-3.712 5.628-.524.71-1.44 1.13-2.177 1.681-1.73-.143-2.508-1.208-2.15-2.248.985-2.866-.588-4.39-2.4-5.771l-.322-.243-.162-.12c-1.418-1.055-1.572-2.282-.918-3.692.63-1.355 1.884-1.52 3.668-.945zm9.955 8.289c.218.058.416.223.633.244 1.262.122 2.477.417 2.246 2.022-.212 1.471-1.48 1.473-3.044 1.442.06 0-.287.04-.622-.008-1.158-.168-2.324-1.465-2.151-2.36.18-.932 1.758-1.657 2.938-1.34zm23.534-.883c1 1.174.573 2.105-.195 2.979-.967 1.098-3.325 2.216-4.94 1.111-.727-2.216.582-3.52 2.164-4.532.961-.616 2.014-.682 2.971.442zm7.362.21c.438.362.702 1.382.527 1.95-.43 1.392-3.033 2.688-4.423 2.243-.559-.179-.953-.872-1.21-1.122.122-2.281 1.62-2.952 2.916-3.588.543-.266 1.653.073 2.19.517zm-27.203-4.6c1.512.292 2.84 1.255 1.987 3.425-2.778 1.054-4.389 1.013-5.189-.396-.305-.536-.272-1.843.07-2.056.917-.571 2.164-1.16 3.132-.973zm-1.734-5.759c1.149-.038 2.317 1.033 2.359 2.162.043 1.175-1.043 2.2-2.425 2.284-.226.014-.454.002-.804.002-1.001.065-2.127-.027-2.332-1.395-.16-1.072 1.997-3.013 3.202-3.053zm199.961-.382c.982-.005 2.089.456 2.907 1.044.498.357.935 1.5.718 1.985-.317.708-1.246 1.141-1.997 1.76-1.233-.639-2.348-1.063-3.258-1.756-.41-.313-.753-1.453-.534-1.71.537-.629 1.418-1.32 2.164-1.323zm46.568-8.548c1.98.22 4.125.406 6.252.717 1.41.206 2.466 1.525 2.125 2.756-.581 2.1-1.216 4.21-2.102 6.194-.54 1.208-1.363 2.528-3.098 2.324-1.206-.142-2.53-1.863-2.61-3.545-.066-1.405-.26-2.36-1.951-2.807-1.864-.492-2.519-1.915-2.186-3.48.251-1.176 1.819-2.169 3.57-2.16zm-182.63-.326c1.9-.033 2.871 1.03 3.243 3.035-.162.504-.316 1.011-.467 1.52l-.453 1.527c-.455 1.526-.935 3.04-1.586 4.477-.654 1.445-2.867 1.277-3.754-.097-.54-.839-1.052-1.777-1.248-2.738-.226-1.102-.693-1.522-1.789-1.6-1.494-.107-2.517-.952-2.846-2.45-.29-1.324.367-2.248 1.45-2.92.26-.163.54-.39.822-.41 2.208-.145 4.418-.307 6.629-.344zm-68.237 8.568c.015 1.09-1.941 2.742-3.245 2.827-1.206.127-1.83-.264-1.884-1.458-.068-1.516 1.364-3.322 2.794-3.428.983-.073 2.323 1.108 2.335 2.059zm265.028-.713c.198.588-.102 1.708-.574 2.073-.693.537-1.742.613-2.64.885-1.36-.032-2.365-.378-2.525-1.84-.115-1.049 1.33-2.274 2.788-2.46 1.264-.163 2.509.03 2.95 1.342zm-67.913-9.859c2.402 1.198 4.68 2.68 6.889 4.217 1.39.968 1.337 2.24.06 3.43-.483.45-.93.943-1.37 1.442l-.44.5c-1.103 1.248-2.24 2.456-3.91 3.048-1.77.627-3.403-.47-3.432-2.077.098-.71.026-1.3.263-1.71 1.123-1.946.734-3.377-1.038-4.774-.444-.35-.329-1.829-.023-2.614.488-1.255 1.804-2.059 3-1.462zm12.337 6.115c1.878.004 3.806 1.531 3.822 3.027.015 1.392-.878 2.13-2.545 2.103-1.803-.03-3.763-1.547-3.765-2.913-.002-1.238 1.1-2.22 2.488-2.217zm-133.74-.083c.78.801 1.77 1.414 2.047 2.26.154.472-.776 1.45-1.402 1.98-.563.478-1.376.893-2.084.902-.681.008-1.735-.378-1.96-.886-.272-.616-.113-1.778.335-2.278.696-.777 1.794-1.196 3.065-1.978zM70.63 101.764c1.893.316 3.862.416 5.644 1.044.827.291 1.964 1.776 1.803 2.436-.722 2.945-1.417 6.015-3.622 8.31-1.365 1.422-3.616.926-3.565-.86.09-3.09-1.63-4.434-3.947-5.58-1.296-.641-2.22-1.633-1.62-3.1.565-1.38 1.777-2.139 3.38-2.055.628.033 1.259.005 1.888.005l.039-.2zm228.113 6.228c1.62.047 2.504.964 2.438 2.527-.052 1.24-1.58 2.411-3.116 2.39-1.724-.025-3.18-1.074-3.144-2.266.05-1.647 1.593-2.718 3.822-2.651zm-216.97.879c.667.132 1.24.74 1.854 1.136-.45.628-.794 1.396-1.382 1.84-.487.367-1.264.351-2.26.588-.582-.31-1.474-.57-2.06-1.143-.887-.868-.392-2.249.837-2.427.989-.143 2.042-.186 3.011.006zm162.472-2.052c.474.164 1.282.212 1.69.64.52.549 1.125 1.507.973 2.105-.312 1.233-1.45 1.433-2.55 1.566l-.311.037-.154.02c-.207.025-.43-.123-.65-.165-1.158-.217-2.525-.257-2.516-1.891.007-1.148 1.904-2.37 3.518-2.312zm-133.836-1.355c1.618.197 2.425 1.149 2.602 2.364.153 1.047-.428 2.028-1.66 2.302-1.215.27-2.343 1.138-3.69.11-1.212-.924-1.565-2.067-.392-3.065.889-.756 2.082-1.154 3.14-1.711zm186.71-2.808c.608.393 1.665.73 1.722 1.192.1.808-.186 1.902-.728 2.49-.64.69-1.682 1.107-2.625 1.396-1.419.435-2.484-.845-2.099-2.298.336-1.266 2.085-2.667 3.73-2.78zm-213.802.05c1.122.191 2.287.757 2.384 2.112.075 1.043-1.872 2.263-3.575 2.587-.772-.54-1.66-.977-2.263-1.665-.274-.311-.19-1.26.091-1.673.779-1.138 2.058-1.584 3.363-1.361zm207.317-.55c1.822 1.246 1.414 3.483-.86 4.5-.652.293-1.409.35-2.333.564-.476-.191-1.45-.301-1.595-.706-.228-.643-.097-1.582.228-2.22 1.012-1.994 3.542-2.835 4.56-2.138zm-50.535 4.916c-1.485 0-3.08.155-4.63-.046-1.387-.18-1.881-1.504-.965-2.504.629-.686 1.586-1.367 2.465-1.47 2.614-.308 3.838.15 3.13 4.02zm-139.738-6.047c.595.002 1.385.54 1.728 1.066.332.508.52 1.627.218 1.936-1.014 1.038-2.164 2.102-3.474 2.646-1.291.537-1.863-.256-1.777-1.974.08-1.564 1.84-3.677 3.305-3.674zm9.774 1.653c.106 1.628-2.113 3.169-4.209 3.281-.5.027-1.403-.96-1.52-1.59-.272-1.468 1.944-3.424 3.632-3.44 1.31-.149 2.016.5 2.097 1.749zM186 97.503c.933.68 2.04 1.223 2.732 2.096.38.48.115 1.521.026 2.296-.03.259-.372.586-.646.695-1.26.5-4.267-1.351-4.453-2.7-.199-1.438.45-2.073 2.341-2.387zm-105.457-.005c1.3-.011 2.19.403 2.152 1.951-.041 1.699-.967 2.495-3.436 2.862-.571-.565-1.51-1.058-1.636-1.708-.26-1.347 1.546-3.092 2.92-3.105zm-7.025-1.697c1.093.082 2.01.522 1.965 1.87-.008 1.774-1.303 3.17-2.923 3.254-1.345.07-1.633-.926-1.74-1.834-.167-1.406 1.498-3.38 2.698-3.29zm118.738-.975c1.075.504 2.127 1.245 2.913 2.127.874.981.56 2.061-.404 3.005-.919.898-1.719.804-2.69.114-1.69-1.203-2.288-1.966-2.32-3.231-.034-1.332 1.348-2.555 2.5-2.015zm68.154-7.552c.504.22.982.505 1.454.802l.703.447c1.429.9 2.96 1.686 4.237 2.77 1.874 1.59 1.945 2.837.157 4.504-1.808 1.685-3.86 3.112-5.84 4.605-.197.148-.492.165-.676.166h-.125c-.015 0-.026 0-.033.002-2.222.005-3.216-1.456-2.169-3.208 1.385-2.316.525-4.006-.853-5.808-.845-1.103-1.067-2.488-.231-3.605.801-1.071 2.124-1.223 3.376-.675zm12.788 7.782c.363.05.843.482.959.84.229.706.551 1.654.259 2.183-.316.57-1.29.777-1.532.906-1.887-.116-3.312-.237-3.647-1.78-.155-.71.2-2.145.575-2.238 1.061-.263 2.26-.068 3.386.089zm-91.303-10.234c.838.544 1.782.975 2.487 1.656 1.103 1.067 2.087 2.268 3.045 3.472 2.01 2.527 2.02 3.908-1.486 5.515-1.167.535-2.22 1.325-3.4 1.82-.806.339-1.751.542-2.62.5-1.996-.098-2.992-2.012-2.046-3.773.29-.541.63-1.072 1.029-1.538.907-1.06 1.039-2.102.381-3.388-1.147-2.242-.044-3.98 2.61-4.264zm158.331 3.28c.043 1.086.01 2.173.01 3.26 0 1.088-.007 2.175 0 3.262.01 1.475-.996 2.327-2.12 2.79-1.31.54-2.214-.512-2.964-1.434-.452-.557-.676-1.294-1.09-1.89-.561-.807-1.128-1.547-2.373-1.368-1.762.253-2.759-.485-3.044-2.116-.275-1.578.552-2.577 1.955-3.068 2.078-.726 4.177-1.396 6.292-2.004 1.292-.372 3.28 1.198 3.334 2.568zM148 94.507c.245.51.28 1.502-.044 1.83-.815.83-1.843 1.606-3.171.998-.75-.344-1.46-.77-2.714-1.44.098-.177.186-.368.27-.562l.165-.39c.247-.583.5-1.134.925-1.367 1.437-.787 4.04-.165 4.569.931zm-11.65-11.042c2.165.758 4.315 1.642 6.322 2.746 1.836 1.008 1.992 2.544.744 4.262-1.006 1.386-2.022 2.766-3.086 4.107-1.445 1.821-2.685 1.982-5.094.664 0-1.505.109-3.086-.049-4.64-.072-.713-.498-1.622-1.06-2.007-1.264-.864-1.724-1.901-1.248-3.283.505-1.466 2.009-2.36 3.47-1.849zm59.903 7.437c.225.013.504.276.634.497.406.686 1.228 1.647 1.018 2.061-.366.722-1.381 1.115-2.124 1.646l-.275-.386c-.343 0-.767.13-1.012-.023-.894-.565-1.88-1.105-2.504-1.909-.231-.296.333-1.796.722-1.88 1.13-.245 2.357-.076 3.541-.006zm22.658-1.536c1.176-.034 3.555 2.476 3.515 3.705-.037 1.1-.671 1.504-1.512 1.317-1.848.016-3.678-1.71-3.568-3.268.064-.913.468-1.722 1.565-1.754zm127.767-.107c.397.277.649.761.763.9.037 2.1-2.935 4.144-4.438 3.368-.9-.464-1.57-1.117-.84-2.422 1.083-1.943 3.03-2.883 4.515-1.846zm-74.111-.008c1.712-.01 2.442.618 2.421 2.081-.019 1.339-.873 2.027-2.514 2.028-1.203 0-3.191-1.186-3.194-1.905-.005-1.051 1.7-2.194 3.287-2.204zm-119.83 1.26c-.02 1.592-.688 2.208-2.343 2.161-1.949-.056-3.812-1.251-3.825-2.454-.014-1.302 1.193-2.4 2.679-2.44 2.156-.056 3.51 1.005 3.489 2.733zm71.814-3.08c1.695.035 3.415 1.642 3.391 3.227-.02 1.37-.44 1.703-2.11 1.671-1.78-.033-3.065-1.346-3.065-3.043 0-1.235.479-1.883 1.784-1.855zm77.653-9.233c2.293.335 4.61.556 6.872 1.036 2.132.453 2.99 2.125 2.137 4.074-.932 2.128-2.001 4.201-3.12 6.237-.73 1.331-2.175 1.366-3.306.935-.548-.209-.947-1.454-.978-2.247-.076-1.92-.683-3.347-2.531-4.164-.694-.307-1.542-.735-1.843-1.343-.404-.816-.64-1.936-.42-2.79.391-1.51 1.72-1.863 3.189-1.738zm-85.526-1.395c1.7 1.6 3.231 3.379 4.817 5.098 2.168 2.352 1.822 4.89-1.307 5.816-2.1.622-4.131 1.474-6.353 2.281-.905-.52-1.867-.787-2.352-1.42-.78-1.018-.123-1.98.721-2.72 1.709-1.498 1.634-3.33.99-5.249-.698-2.077-.409-3.277 1.367-4.099.561-.26 1.68-.118 2.117.293zm96.817 8.674c.398 0 .88-.143 1.176.03.667.39 1.455.83 1.768 1.46.168.337-.423 1.26-.892 1.662-1.2 1.028-3.347.885-4.367-.268-.352-.398-.695-1.19-.525-1.572.243-.548.913-.978 1.494-1.278.359-.185.892-.034 1.346-.034zm-120.58 1.791c.017 1.622-.4 1.969-2.365 1.97-2.207.003-3.875-1.18-3.791-2.757.096-1.806 1.844-1.646 2.848-1.912 1.56-.411 3.293 1.25 3.308 2.7zm-79.53-11.546l.014.137c.456 0 .914.027 1.368-.005 4.329-.308 4.555 1.578 3.585 5.515-.395 1.602-1.155 3.11-1.666 4.689-.428 1.319-1.521 1.621-2.622 1.705-1.205.09-1.708-.968-1.731-1.895-.067-2.702-1.769-3.838-3.999-4.516-1.411-.429-2.272-1.358-2.15-2.762.125-1.435.89-2.45 2.64-2.442 1.52.008 3.04-.273 4.561-.426zm114.074 6.665c1.403.008 2.555 1.139 2.544 2.496.131 1.493-.822 2.12-2.053 2.263-1.368.158-3.27-1.57-3.285-2.797-.01-.825 1.619-1.969 2.794-1.962zm118.3-.829c.903.773 1.928 1.262 2.293 2.054.534 1.16-.247 2.152-1.326 2.711-.722.373-1.535.8-2.3.79-.713-.01-1.778-.395-2.037-.93-.33-.68-.332-1.958.112-2.476.74-.863 1.945-1.327 3.258-2.149zM152.73 84.532c.103 1.266-1.338 2.25-3.552 2.327-.224-.263-.606-.295-1.01-.31l-.222-.008c-.705-.028-1.4-.124-1.384-1.396.018-1.363 1.561-2.686 3.282-2.758 1.273-.054 2.799 1.081 2.886 2.145zm183.709-4.28c.429.44.806 1.55.554 1.919-.754 1.105-1.687 2.226-2.813 2.908-1.451.881-2.621-.084-2.485-1.808.047-1.903 1.237-3.093 2.738-3.852.44-.223 1.524.335 2.006.832zm-214.111.713c.656.476 1.82.903 1.872 1.437.148 1.534-1.103 2.728-2.453 2.703-.643-.012-1.473.051-1.878-.305-.54-.475-1.189-1.522-.991-1.97.288-.656 1.257-1.056 1.998-1.448.31-.164.78-.027 1.176-.027l.276-.39zm21.952-1.432c1.054.172 1.441 1.364 1.265 2.583-.178 1.227-1.36 1.972-3.397 1.972-1.199.027-2.402.052-2.786-1.46-.324-1.282.68-1.927 1.487-2.32 1.043-.51 2.346-.953 3.43-.775zm171.565.515c.91-.015 2.18.22 2.672.838 1.144 1.437-.42 3.202-2.73 3.202-2.293 0-3.453-1.44-2.314-3.053.428-.607 1.556-.974 2.372-.987zm27.272-2.095c1.203.2 1.619 1.323 1.086 2.182-.69 1.115-1.697 2.171-2.814 2.845-1.245.753-2.31-.172-2.311-1.744.178-2.452 1.8-3.656 4.04-3.283zm-118.009-1.115c.64.508 1.49 1.882 1.316 2.089-.677.809-1.725 1.309-2.634 1.923l-.218-.37c-.45-.06-.911-.079-1.35-.189-1.347-.337-1.699-1.334-.907-2.498.866-1.272 2.686-1.832 3.793-.955zm-99.824-1.009c.392.468 1.042 1.076.96 1.5-.123.63-.71 1.253-1.25 1.695-.575.47-1.325.726-2.409 1.288-.69-.754-1.64-1.39-1.978-2.265-.402-1.043.344-1.777 1.44-2.211 1.126-.447 2.164-1.29 3.237-.007zm188.98-1.685c1.064-.014 2.298 1.214 2.275 2.266-.031 1.434-1.486 2.541-3.46 2.525-1.176.21-1.764-.312-1.69-1.676.078-1.412 1.575-3.097 2.875-3.115zm-6.952-1.643c.823.141 2.14.102 2.038 1.686-.106 1.648-1.421 3.042-3.55 3.069-.564-.018-1.266-.366-1.271-1.567-.007-1.542 1.46-3.416 2.783-3.188zM174.24 74.714c-1.705.593-3.367.906-4.587-.568-.47-.566-.587-1.61-.476-2.382.046-.314 1.12-.667 1.732-.68 2.366-.05 3.599 1.32 3.331 3.63zm-51.049-2.42c.012 1.404-1.387 2.555-3.844 2.68-.243-.262-1.12-.77-1.207-1.39-.214-1.523 1.32-3.366 2.67-3.55.984-.135 2.372 1.214 2.381 2.26zm-7.836-2.194c.367.754.275 2.038-.159 2.793-.484.842-1.564 1.34-2.357 1.967-2.163-1.725-2.14-4.268.038-5.104.723-.278 2.266-.094 2.478.344zm48.261-8.901c1.863.946 3.822 1.703 5.737 2.547 1.626.718 1.942 1.19 2.226 3.028-.418.664-.752 1.4-1.268 1.975-1.38 1.538-2.848 2.998-4.263 4.504-1.056 1.122-2.419 1.3-3.5.46-.533-.414-.692-1.81-.466-2.604.641-2.262.139-3.958-1.648-5.484-1.357-1.158-1.504-2.78-.575-3.894 1.073-1.288 2.304-1.27 3.757-.532zm14.875 7.875c-.02 1.346-.86 1.985-2.581 1.964-1.78-.022-3.336-1.159-3.216-2.484.128-1.408 1.174-1.916 2.444-1.955 1.81-.056 3.372 1.133 3.353 2.475zm-2.807-8.321c.906.005 2.432 1.558 2.357 2.431-.09 1.031-1.793 2.558-3.002 2.688-.904-.753-2.071-1.352-2.629-2.308-.438-.75 2.093-2.818 3.274-2.811zm196.691-7.786c2.993.228 3.732 1.13 3.261 4.055-.268 1.668-.404 3.358-.694 5.022-.254 1.46-1.106 2.586-2.634 2.693-1.497.104-2.252-1.086-2.838-2.292-.171-.352-.257-.746-.374-1.123-.392-1.25-1.117-2.069-2.549-1.958-1.693.131-2.347-1.008-2.562-2.349-.21-1.319.161-2.516 1.765-2.815l6.625-1.233zm-24.158 2.367c-.27 2.082-.437 4.185-.848 6.24-.238 1.188-1.08 2.108-2.417 2.23-1.28.117-1.722-.809-1.994-1.834-.603-2.275-2.139-3.218-4.418-3.324-1.372-.064-2.65-.73-2.95-2.117-.17-.796.166-2.026.739-2.571.7-.666 1.87-.879 2.869-1.179 1.601-.48 3.207-1.031 4.851-1.267 3.202-.46 4.41 1.227 4.168 3.822zm34.276 3.873c-.089 1.582-1.3 2.539-3.589 2.56-1.116.246-1.892-.36-2.09-1.526-.2-1.19 1.935-2.911 3.522-2.918 1.24-.005 2.248.249 2.157 1.884zm-212.743-2.19c1.11.1 2.074.61 2.179 1.897.089 1.09-2.032 2.671-4.045 2.664-.302-.372-1.15-.963-1.29-1.689-.226-1.185 1.847-2.988 3.156-2.871zm184.886-.16c.251 1.35-1.534 2.832-3.396 2.85-1.238.152-2.334-.426-2.33-1.703.006-1.646 1.658-2.038 2.884-2.331 1.023-.245 2.52-.549 2.842 1.184zm27.21-6.41c1.045.033 2.605 1.382 2.607 2.255.004 1.378-2.282 2.922-4.259 2.877-1.396-.032-2.282-.883-2.225-2.14.065-1.438 2.148-3.046 3.876-2.992zm-29.03-1.03c1.192.003 2.365.994 2.314 1.953-.062 1.15-2.175 2.89-3.527 2.829-1.219-.055-2.207-.447-2.082-1.968.02-1.472 1.597-2.82 3.295-2.815zm18.484-2.99c.645.001 1.582.714 1.854 1.336.3.684.28 1.84-.127 2.422-.574.82-1.556 1.477-2.5 1.882-1.56.67-2.482-.113-2.462-1.867.018-1.591 1.716-3.773 3.235-3.772zm7.959-.445c1.638.022 2.458 1.271 1.46 2.576-.8 1.044-1.997 1.902-3.192 2.487-1.051.516-2.195-.794-1.998-2.076.27-1.758 1.835-3.012 3.73-2.987zm-37.541-.336c1.114.133 1.784.718 1.675 2.045-.142 1.739-1.407 3.677-2.525 3.381-1.207-.32-1.933-1.21-1.654-2.443.05-1.762 1.2-3.139 2.504-2.983zm8.756-.054c.86.74.676 2.892-.305 3.454-1.043.596-2.248.91-3.58 1.424-.277-2.09-.718-3.681.854-4.914 1.035-.812 2.125-.745 3.03.036zM415.38 37c.557.06 1.343-.09 1.625.22.637.698 1.467 1.68 1.37 2.438-.074.586-1.422 1.035-2.237 1.485-.217.12-.558.034-.84.013-1.663-.121-3.1-1.181-2.905-2.294.286-1.64 1.533-1.951 2.987-1.862zm48.23.135c.638.511 1.267 1.614 1.143 2.326-.114.654-1.236 1.133-1.858 1.642-1.153-.461-2.058-.607-2.645-1.118-.608-.529-1.362-1.529-1.214-2.11.156-.616 1.255-1.266 2.02-1.38.82-.124 1.916.13 2.554.64zm-58.588-9.666c1.12.071 2.232.462 3.323.795 1.278.39 2.543.833 3.79 1.315 2.275.88 2.798 2.727 1.35 4.711-1.08 1.478-2.084 3.03-3.31 4.376-.818.898-1.82 1.965-3.314 1.295-1.325-.594-2.05-1.584-1.784-2.624.08-1.069.01-1.674.188-2.196.387-1.136.123-1.954-.884-2.591-1.174-.744-1.514-1.815-1.314-3.183.175-1.204.796-1.972 1.955-1.898zm50.682-1.77c1.534.952 3.079 1.89 4.58 2.893 2.033 1.359 2.545 3.627.22 5.39-1.32 1-2.483 2.202-3.79 3.221-.61.477-1.393.735-1.662.87-2.333-.017-3.37-1.277-2.986-3.042.178-.824.643-1.614.683-2.434.043-.853-.01-1.916-.477-2.55-1.178-1.593-1.532-2.931-.447-4.004 1.13-1.116 2.506-1.196 3.879-.345zm10.802 6.203c1.62.055 3.786 1.16 3.727 3.026-.043 1.399-.756 2.086-2.252 2.119-1.742.038-4.123-2.003-4.104-2.993.018-1.007 1.375-2.14 2.629-2.152zm-47.82-.41c1.593.648 2.833.962 3.822 1.64.423.292.631 1.467.403 2.021-.506 1.227-1.645 1.78-2.996 1.484-.631-.138-1.347-.384-1.78-.823-.654-.66-1.64-1.667-1.49-2.28.203-.822 1.358-1.41 2.042-2.041zm-32.164-10.92c1.633.006 1.753 1.444 2.274 2.74-.811 2.576-1.538 5.299-2.578 7.897-.262.656-1.53 1.252-2.323 1.235-.529-.012-1.303-1.087-1.495-1.812-.576-2.173-1.501-3.718-3.98-4.148-1.44-.25-2.85-1.096-2.778-2.946.068-1.747 1.382-2.276 2.838-2.58.276-.057.548-.176.825-.186 2.405-.084 4.811-.209 7.217-.2zm81.676 6.18c1.394.091 2.926 1.427 2.873 2.506-.066 1.365-1.011 1.839-3.62 1.624-1.013.016-2.416.026-2.522-1.81-.062-1.084 1.895-2.41 3.269-2.32zm-47.812-.285c.884.184 2.193.048 2.274 1.515.074 1.348-.572 2.298-1.882 2.533-.945.17-2.002.203-2.906-.06-.327-.094-.588-.416-.84-.773l-.213-.31c-.107-.154-.215-.306-.329-.438l1.826-1.178c.01-.969.862-1.54 2.07-1.29zM392.654 25.3c.444.31 1.658.758 1.684 1.267.037.724-.659 1.653-1.293 2.206-1.04.908-2.328 1.245-3.472.096-.412-.414-.898-1.095-.821-1.568.09-.556.662-1.208 1.196-1.473.677-.335 1.526-.32 2.706-.528zm20.982-1.975c1.514-.027 2.315 1.03 2.345 2.261.03 1.278-.946 2.109-2.337 2.177-.455.023-.912.004-1.369.004-.399 0-.8.03-1.197-.005-1.464-.13-2.026-1.202-1.275-2.44.87-1.434 2.234-1.969 3.833-1.997zm48.637-1.106c.85.636 1.813 1.104 2.369 1.868.307.422.184 1.711-.183 1.96-.87.586-1.98.914-3.034 1.09-.596.099-1.307-.244-1.915-.505-1.441-.62-1.416-1.967-.384-2.913.73-.67 1.853-.91 3.147-1.5zm29.371-2.713l.243.08c.16.054.32.109.48.153.505.141 1.005.583 1.33 1.021.437.592 1.123 1.484.939 1.934-.238.58-1.231.851-2.035 1.337-1.012-.509-1.968-.77-2.604-1.37-.691-.652-1.419-1.5-.511-2.652.686-.872 1.429-.737 2.158-.503zm-95.808 1.766c.16 1.359-1.47 2.385-3.704 2.382-1.26.242-2.096-.395-2.235-1.74-.127-1.23 1.58-2.324 3.36-2.39 1.337-.049 2.408.287 2.58 1.748zM485.29 7.898c2.052 1.34 4.168 2.598 6.11 4.083.76.582 1.124 1.683 1.828 2.801-.827 1.036-1.353 2.003-2.15 2.627-1.137.89-2.341 1.694-3.555 2.484l-1.458.944c-1.114.723-2.488.816-3.158-.289-.447-.74-.308-2.142.084-3.016.667-1.487.663-2.8-.069-4.17-.345-.645-.75-1.258-1.14-1.879-.716-1.141-.523-2.245.402-3.08.858-.776 1.929-1.274 3.106-.505zm10.667 7.91c1.806.01 3.664 1.59 3.307 2.906-.222.82-1.152 1.448-1.568 1.932-2.286-.396-4.198-1.545-3.985-3.162.196-1.494 1.185-1.681 2.246-1.675zm-105.94-1.418c1.295-.034 2.383.911 2.398 2.083.017 1.368-1.535 2.673-3.26 2.74-1.089.212-1.763-.209-1.836-1.333-.106-1.639 1.331-3.455 2.698-3.49zm50.89.363c.998.448 1.97.747 2.772 1.294.488.332 1.118 1.22.975 1.55-.278.638-.98 1.317-1.645 1.515-1.442.43-2.656-.4-3.517-1.437-.376-.454-.386-1.451-.173-2.067.138-.398.982-.553 1.587-.855zm-57.867-.703c1.122.034 1.81.61 1.832 1.74.033 1.686-1.478 3.414-2.862 3.395-1.406-.02-1.656-.913-1.581-2.063-.004-1.802 1.11-3.119 2.611-3.072zm50.347-9.13c2.22 1.17 4.633 1.983 6.826 3.196 1.674.926 2.014 2.755.748 4.145-1.783 1.955-3.79 3.719-5.807 5.439-.44.375-1.487.501-1.982.235-.65-.35-1.034-1.2-1.531-1.836l.315-.252c0-.171-.064-.38.01-.509 1.446-2.532.188-4.341-1.525-6.111-.972-1.005-1.395-2.33-.474-3.534.83-1.083 1.931-1.56 3.42-.774zm11.869 5.377c1.608.033 3.434 1.604 3.374 2.902-.043.916-1.37 1.875-2.553 1.847-1.611-.039-3.213-1.324-3.236-2.597-.018-1.059 1.235-2.176 2.415-2.152zm52.766-.024c.87.157 1.785.765 1.882 2.132.092 1.294-1.16 2.36-2.565 2.295-1.448-.067-3.142-1.23-3.093-2.124.053-.99 2-2.324 3.776-2.303zm-5.438-5.104c.902.058 2.254 1.563 2.18 2.426-.081.967-2.097 2.323-3.993 2.273-.33-.405-1.21-1.039-1.423-1.847-.294-1.125 1.943-2.936 3.236-2.852zm-46.753-.387c1.152-.013 2.314 1.125 2.305 2.259-.009 1.277-1.117 2.184-2.67 2.184-1.69 0-2.931-.814-2.873-1.883.065-1.166 1.807-2.544 3.238-2.56zm-3.696-1.968c.181 1.05-2.012 2.623-3.508 2.612-1.11-.008-1.832-.581-1.835-1.746-.003-1.431 1.513-2.697 3.196-2.683 1.325-.212 1.954.708 2.147 1.817z"/>
    </defs>
    <g fill="none" fill-rule="evenodd" opacity=".631">
        <g transform="translate(0 .377)">
            <mask id="kp06v1towc" fill="#fff">
                <use xlink:href="#wkdypi2k1a"/>
            </mask>
            <use fill="#FFF" xlink:href="#wkdypi2k1a"/>
            <path fill="url(#4osgthmwdb)" d="M16-4h468c8.837 0 16 7.163 16 16v104H0V12C0 3.163 7.163-4 16-4z" mask="url(#kp06v1towc)" opacity=".511"/>
        </g>
    </g>
</svg>
