<?xml version="1.0" encoding="utf-8"?>
<!DOCTYPE svg PUBLIC "-//W3C//DTD SVG 1.1//EN" "http://www.w3.org/Graphics/SVG/1.1/DTD/svg11.dtd">
<svg version="1.1"
	 id="svg3025" xmlns:sodipodi="http://sodipodi.sourceforge.net/DTD/sodipodi-0.dtd" xmlns:rdf="http://www.w3.org/1999/02/22-rdf-syntax-ns#" xmlns:svg="http://www.w3.org/2000/svg" xmlns:cc="http://creativecommons.org/ns#" xmlns:inkscape="http://www.inkscape.org/namespaces/inkscape" xmlns:dc="http://purl.org/dc/elements/1.1/" sodipodi:docname="svg3025.svg" inkscape:version="0.48.3.1 r9886"
	 xmlns="http://www.w3.org/2000/svg" xmlns:xlink="http://www.w3.org/1999/xlink" x="0px" y="0px" width="500px" height="500px"
	 viewBox="0 0 500 500" enable-background="new 0 0 500 500" xml:space="preserve">
<g id="g3027" transform="matrix(1,0,0,-1,121.49153,1285.4237)">
	<path id="path3029" inkscape:connector-curvature="0" fill="#CCCCCC" d="M199.937,1035.424c0,19.717-6.976,36.551-20.926,50.502
		c-13.951,13.951-30.785,20.926-50.502,20.926s-36.551-6.975-50.502-20.926c-13.951-13.951-20.926-30.785-20.926-50.502
		s6.976-36.551,20.926-50.502c13.951-13.951,30.785-20.926,50.502-20.926s36.551,6.975,50.502,20.926
		C192.962,998.873,199.937,1015.707,199.937,1035.424z M342.795,1065.837v-61.942c0-2.231-0.744-4.371-2.232-6.417
		c-1.487-2.046-3.348-3.255-5.58-3.627l-51.618-7.812c-3.534-10.045-7.161-18.509-10.882-25.391
		c6.511-9.301,16.462-22.136,29.854-38.505c1.86-2.232,2.791-4.557,2.791-6.975c0-2.419-0.838-4.558-2.512-6.418
		c-5.022-6.883-14.229-16.928-27.623-30.134c-13.393-13.207-22.135-19.811-26.228-19.811c-2.231,0-4.65,0.837-7.254,2.511
		l-38.505,30.135c-8.185-4.278-16.647-7.812-25.391-10.604c-2.977-25.297-5.674-42.596-8.092-51.896
		c-1.302-5.209-4.65-7.812-10.045-7.812H97.538c-2.604,0-4.883,0.791-6.836,2.371c-1.953,1.582-3.022,3.581-3.208,5.999
		l-7.812,51.339c-9.115,2.977-17.485,6.418-25.112,10.324l-39.341-29.855c-1.86-1.674-4.186-2.511-6.976-2.511
		c-2.604,0-4.929,1.023-6.976,3.069c-23.438,21.205-38.783,36.83-46.038,46.875c-1.302,1.86-1.953,3.999-1.953,6.418
		c0,2.231,0.744,4.371,2.232,6.417c2.79,3.906,7.534,10.091,14.23,18.555s11.719,15.021,15.067,19.671
		c-5.022,9.301-8.835,18.508-11.439,27.623l-51.061,7.533c-2.418,0.372-4.371,1.534-5.859,3.487
		c-1.488,1.953-2.232,4.139-2.232,6.558v61.941c0,2.232,0.744,4.371,2.232,6.417c1.488,2.046,3.255,3.255,5.301,3.627l51.897,7.812
		c2.604,8.556,6.231,17.113,10.882,25.669c-7.44,10.603-17.392,23.438-29.855,38.504c-1.86,2.232-2.79,4.464-2.79,6.696
		c0,1.86,0.837,4,2.511,6.417c4.836,6.697,13.998,16.695,27.483,29.995s22.275,19.95,26.367,19.95c2.418,0,4.836-0.93,7.254-2.79
		l38.504-29.855c8.185,4.278,16.648,7.812,25.391,10.603c2.977,25.298,5.673,42.597,8.092,51.897
		c1.302,5.208,4.65,7.812,10.044,7.812h61.941c2.605,0,4.883-0.791,6.836-2.372s3.023-3.581,3.209-5.999l7.812-51.339
		c9.115-2.976,17.485-6.417,25.112-10.324l39.62,29.855c1.674,1.674,3.906,2.511,6.696,2.511c2.419,0,4.743-0.93,6.976-2.79
		c23.996-22.136,39.342-37.947,46.038-47.433c1.302-1.488,1.953-3.534,1.953-6.139c0-2.232-0.744-4.371-2.232-6.417
		c-2.79-3.906-7.533-10.091-14.229-18.555c-6.696-8.464-11.719-15.021-15.067-19.671c4.837-9.301,8.649-18.415,11.44-27.344
		l51.06-7.812c2.419-0.372,4.372-1.535,5.859-3.488C342.05,1070.441,342.795,1068.255,342.795,1065.837z"/>
</g>
</svg>
