<?xml version="1.0" encoding="utf-8"?>
<!-- Generator: Adobe Illustrator 16.0.0, SVG Export Plug-In . SVG Version: 6.00 Build 0)  -->
<!DOCTYPE svg PUBLIC "-//W3C//DTD SVG 1.1 Tiny//EN" "http://www.w3.org/Graphics/SVG/1.1/DTD/svg11-tiny.dtd">
<svg version="1.1" baseProfile="tiny" id="Layer_1" xmlns="http://www.w3.org/2000/svg" xmlns:xlink="http://www.w3.org/1999/xlink"
	 x="0px" y="0px" width="512px" height="512px" viewBox="0 0 512 512" xml:space="preserve">
<path fill="#ED1C24" d="
	M7.181,256.003C7.029,121.556,115.917,12.445,250.368,12.304c134.452-0.13,243.558,108.745,243.698,243.198c0,0.167,0,0.334,0,0.501
	c0.141,134.453-108.744,243.559-243.198,243.693C116.421,499.837,7.311,390.956,7.181,256.505
	C7.181,256.337,7.181,256.17,7.181,256.003z"/>
<path fill="#EEEEEC" d="
	M306.491,430.23c72.063-23.551,124.446-90.861,124.446-170.843c0-99.565-80.764-180.324-180.328-180.324
	c-99.552,0-180.312,80.759-180.312,180.324c0,79.987,52.654,147.308,124.739,170.843v-64.437
	c-38.463-20.201-65.306-59.977-65.306-106.406c0-66.664,54.227-120.914,120.878-120.914c66.664,0,120.908,54.25,120.908,120.914
	c0,46.403-26.569,86.2-65.026,106.406V430.23z"/>
<path fill="#EEEEEC" d="M220.166,285.391c0-16.822,13.633-30.444,30.455-30.444l0,0c16.816,0,30.448,13.622,30.448,30.444v155.816
	c-0.001,16.816-13.632,30.448-30.448,30.448l0,0c-16.822,0-30.455-13.632-30.455-30.448V285.391z"/>
</svg>
