
<?xml version="1.0" encoding="utf-8"?>
<svg version="1.1" id="Layer_1" xmlns="http://www.w3.org/2000/svg" xmlns:xlink="http://www.w3.org/1999/xlink" x="0px" y="0px"
	 width="130px" height="130px" viewBox="15 15 130 130" enable-background="new 15 15 130 130" xml:space="preserve">
<g>
	<path fill="#4B4B4B" d="M80,15c-35.88,0-65,29.12-65,65s29.12,65,65,65s65-29.12,65-65S115.88,15,80,15z M80,25
		c30.359,0,55,24.64,55,55c0,30.359-24.641,55-55,55c-30.36,0-55-24.641-55-55C25,49.64,49.64,25,80,25z"/>
	<path fill="#4B4B4B" d="M89.998,51.251c0,6.213-5.036,11.25-11.25,11.25c-6.213,0-11.25-5.037-11.25-11.25
		c0-6.214,5.037-11.25,11.25-11.25C84.962,40,89.998,45.037,89.998,51.251z"/>
	<path fill="#4B4B4B" d="M90.665,110.96c-0.069,2.729,1.211,3.5,4.327,3.82l5.008,0.1V120H60.927v-5.12l5.503-0.1
		c3.291-0.101,4.082-1.38,4.327-3.82V80.147c0.035-4.879-6.296-4.113-10.757-3.968v-5.074L90.665,70"/>
</g>
</svg>
